<?xml version="1.0" encoding="UTF-8"?>
<svg version="1.1" xmlns="http://www.w3.org/2000/svg" width="512" height="512">
<path d="M0 0 C1.10214844 1.03640625 1.10214844 1.03640625 2.2265625 2.09375 C2.81695312 2.6196875 3.40734375 3.145625 4.015625 3.6875 C25.49450033 23.63944107 39.93533962 56.51328896 41.40356445 85.6003418 C41.68399595 102.4988534 41.87750302 118.69039088 37.2265625 135.09375 C36.89914062 136.34800781 36.57171875 137.60226562 36.234375 138.89453125 C30.4441402 158.56865022 19.19539115 175.60658934 5.48828125 190.60546875 C-6.40023961 203.68489498 -13.29036671 216.67839603 -16.7734375 234.09375 C-67.5934375 234.09375 -118.4134375 234.09375 -170.7734375 234.09375 C-172.0934375 228.81375 -173.4134375 223.53375 -174.7734375 218.09375 C-175.86625348 215.1654999 -176.85405457 212.6267971 -178.2734375 209.90625 C-178.60746582 209.25172852 -178.94149414 208.59720703 -179.28564453 207.92285156 C-182.92491251 201.19893287 -187.94591706 196.00472271 -193.29052734 190.61425781 C-207.94797107 175.58518973 -217.97003251 156.93454899 -224.0859375 136.96875 C-224.32852295 136.18218018 -224.5711084 135.39561035 -224.82104492 134.58520508 C-228.27017304 122.72844618 -229.18483424 110.89970835 -229.1484375 98.59375 C-229.14789368 97.89675995 -229.14734985 97.1997699 -229.14678955 96.48165894 C-229.02375047 61.99971148 -216.73791083 30.06318512 -192.7734375 5.09375 C-191.89171875 4.13726562 -191.01 3.18078125 -190.1015625 2.1953125 C-175.05385624 -13.81503293 -155.65837869 -24.45342764 -134.7734375 -30.90625 C-133.57847656 -31.27621094 -132.38351563 -31.64617187 -131.15234375 -32.02734375 C-84.86410176 -44.96151986 -35.04038125 -32.48187722 0 0 Z M-126.09375 52.48828125 C-134.31060443 62.35760272 -138.28442182 71.87595563 -138.09375 84.80078125 C-137.66395692 89.21926374 -136.8411707 90.94080199 -133.7734375 94.09375 C-133.2165625 94.691875 -132.6596875 95.29 -132.0859375 95.90625 C-128.44090901 97.77802139 -124.850053 98.20718626 -120.7734375 98.09375 C-115.96411623 96.46039561 -113.6349313 94.21749955 -110.7734375 90.09375 C-109.59102095 86.70550003 -109.59102095 86.70550003 -108.7734375 83.09375 C-107.56881718 78.10318009 -106.3146399 74.86142465 -102.7734375 71.09375 C-98.69234471 68.71311254 -94.39474122 68.52176152 -89.7734375 69.09375 C-86.03699625 70.38713351 -84.11802332 71.73102809 -81.3984375 74.59375 C-79.1091462 79.52453127 -79.03717998 83.74788019 -79.7734375 89.09375 C-82.13663244 95.23805684 -87.32065479 97.26632936 -92.796875 100.32421875 C-100.62344353 104.9770213 -105.23105348 111.33039976 -107.7734375 120.09375 C-108.51015802 125.69670342 -109.13030904 131.73042637 -106.0234375 136.71875 C-105.2809375 137.5025 -104.5384375 138.28625 -103.7734375 139.09375 C-103.2165625 139.691875 -102.6596875 140.29 -102.0859375 140.90625 C-98.44090901 142.77802139 -94.850053 143.20718626 -90.7734375 143.09375 C-86.02886596 141.48238608 -83.43467599 139.31502485 -80.7734375 135.09375 C-80.40688467 133.63848055 -80.05383113 132.17977502 -79.7109375 130.71875 C-77.78391648 124.29889543 -72.26308232 122.2472117 -66.7734375 119.09375 C-58.93495983 113.77262958 -52.83363408 104.97324561 -50.2109375 95.859375 C-48.0181172 81.99761811 -49.44767819 69.18423779 -57.3359375 57.34375 C-64.93935584 47.56792642 -75.53967035 41.11400513 -87.7734375 39.09375 C-101.98515656 37.8188752 -116.02803942 42.1006035 -126.09375 52.48828125 Z M-102.7734375 177.09375 C-106.97442243 181.74889546 -108.1277984 184.62410959 -108.05859375 190.7734375 C-107.51972242 195.15822612 -104.98979495 197.78729199 -102.0859375 200.90625 C-98.44090901 202.77802139 -94.850053 203.20718626 -90.7734375 203.09375 C-85.40057883 201.26900555 -82.29942715 198.14572929 -79.7734375 193.09375 C-79.19918665 188.38677583 -79.31789198 184.97230208 -81.5234375 180.71875 C-85.57779528 175.98866593 -88.32215688 174.52032877 -94.52734375 174.03125 C-97.94332538 174.1263034 -99.99384879 175.15450206 -102.7734375 177.09375 Z " fill="#000000" transform="translate(349.7734375,157.90625)"/>
<path d="M0 0 C49.5 0 99 0 150 0 C150 30.32710823 148.31813682 48.93671863 127.6953125 70.3984375 C112.74785677 84.75779661 93.56413732 91.4264733 73.0456543 91.3684082 C54.79124776 90.90384711 38.58703245 84.25450388 25 72 C24.31550781 71.40832031 23.63101563 70.81664062 22.92578125 70.20703125 C9.8176898 58.12904522 3.77628861 41.99329874 0 25 C0 16.75 0 8.5 0 0 Z " fill="#000000" transform="translate(181,421)"/>
<path d="M0 0 C1.2707563 -0.00855011 1.2707563 -0.00855011 2.56718445 -0.01727295 C4.36012526 -0.02671702 6.15308338 -0.03325458 7.94604492 -0.03710938 C10.67853383 -0.04680163 13.41026613 -0.07782462 16.14257812 -0.109375 C17.8867143 -0.11590678 19.63085583 -0.12115657 21.375 -0.125 C22.18769852 -0.1373468 23.00039703 -0.1496936 23.83772278 -0.16241455 C28.76645589 -0.14322144 32.11103309 0.48719718 36.38671875 3.203125 C41.05849218 8.37995502 41.73455285 11.59665998 41.671875 18.4375 C41.17562355 23.2504593 38.8485729 25.91846529 35.32421875 29.015625 C31.00429947 31.66331746 26.66853607 31.38084172 21.7734375 31.40625 C20.92626663 31.41195007 20.07909576 31.41765015 19.20625305 31.42352295 C17.41331224 31.43296702 15.62035412 31.43950458 13.82739258 31.44335938 C11.09490367 31.45305163 8.36317137 31.48407462 5.63085938 31.515625 C3.8867232 31.52215678 2.14258167 31.52740657 0.3984375 31.53125 C-0.41426102 31.5435968 -1.22695953 31.5559436 -2.06428528 31.56866455 C-6.99301839 31.54947144 -10.33759559 30.91905282 -14.61328125 28.203125 C-19.28505468 23.02629498 -19.96111535 19.80959002 -19.8984375 12.96875 C-19.40218605 8.1557907 -17.0751354 5.48778471 -13.55078125 2.390625 C-9.23086197 -0.25706746 -4.89509857 0.02540828 0 0 Z " fill="#000000" transform="translate(470.61328125,240.796875)"/>
<path d="M0 0 C1.2707563 -0.00855011 1.2707563 -0.00855011 2.56718445 -0.01727295 C4.36012526 -0.02671702 6.15308338 -0.03325458 7.94604492 -0.03710938 C10.67853383 -0.04680163 13.41026613 -0.07782462 16.14257812 -0.109375 C17.8867143 -0.11590678 19.63085583 -0.12115657 21.375 -0.125 C22.18769852 -0.1373468 23.00039703 -0.1496936 23.83772278 -0.16241455 C28.76645589 -0.14322144 32.11103309 0.48719718 36.38671875 3.203125 C41.05849218 8.37995502 41.73455285 11.59665998 41.671875 18.4375 C41.17562355 23.2504593 38.8485729 25.91846529 35.32421875 29.015625 C31.00429947 31.66331746 26.66853607 31.38084172 21.7734375 31.40625 C20.92626663 31.41195007 20.07909576 31.41765015 19.20625305 31.42352295 C17.41331224 31.43296702 15.62035412 31.43950458 13.82739258 31.44335938 C11.09490367 31.45305163 8.36317137 31.48407462 5.63085938 31.515625 C3.8867232 31.52215678 2.14258167 31.52740657 0.3984375 31.53125 C-0.41426102 31.5435968 -1.22695953 31.5559436 -2.06428528 31.56866455 C-6.99301839 31.54947144 -10.33759559 30.91905282 -14.61328125 28.203125 C-19.28505468 23.02629498 -19.96111535 19.80959002 -19.8984375 12.96875 C-19.40218605 8.1557907 -17.0751354 5.48778471 -13.55078125 2.390625 C-9.23086197 -0.25706746 -4.89509857 0.02540828 0 0 Z " fill="#000000" transform="translate(19.61328125,240.796875)"/>
<path d="M0 0 C7.11463139 3.4137101 13.88211398 7.427712 20.63671875 11.5 C21.40677246 11.96317627 22.17682617 12.42635254 22.97021484 12.90356445 C27.69314505 15.81187314 31.82236644 18.37715955 34.32421875 23.5 C35.38579725 28.61487825 35.53129643 33.27345881 32.77734375 37.875 C28.84608722 42.73841015 25.65492214 44.44152409 19.44921875 45.3125 C13.30122746 45.10680512 8.22999098 41.78341588 3.01171875 38.8125 C2.3170752 38.42143066 1.62243164 38.03036133 0.90673828 37.62744141 C-1.35703875 36.34692606 -3.61193883 35.0522447 -5.86328125 33.75 C-6.57669678 33.3389502 -7.2901123 32.92790039 -8.02514648 32.50439453 C-20.22749588 25.30699891 -20.22749588 25.30699891 -21.98828125 19.8125 C-22.66225029 14.62450573 -22.60247073 10.16371685 -20.42578125 5.375 C-14.48684379 -0.86849836 -8.2999265 -3.29827145 0 0 Z " fill="#000000" transform="translate(54.98828125,122.1875)"/>
<path d="M0 0 C0.69464355 0.39106934 1.38928711 0.78213867 2.10498047 1.18505859 C4.3687575 2.46557394 6.62365758 3.7602553 8.875 5.0625 C9.58841553 5.4735498 10.30183105 5.88459961 11.03686523 6.30810547 C23.23921463 13.50550109 23.23921463 13.50550109 25 19 C25.67396904 24.18799427 25.61418948 28.64878315 23.4375 33.4375 C19.46522764 37.61347863 16.11620521 39.59160952 10.4375 40.6875 C0.66103865 40.08932263 -9.4484438 32.24206921 -17.625 27.3125 C-18.39505371 26.84932373 -19.16510742 26.38614746 -19.95849609 25.90893555 C-24.6814263 23.00062686 -28.81064769 20.43534045 -31.3125 15.3125 C-32.3740785 10.19762175 -32.51957768 5.53904119 -29.765625 0.9375 C-20.80335608 -10.14984299 -10.74597147 -6.11799765 0 0 Z " fill="#000000" transform="translate(454,352)"/>
<path d="M0 0 C3.8666056 2.57773707 6.92171724 5.23544126 8.44921875 9.76171875 C9.37146728 14.80929406 8.63642902 19.54842984 5.8125 23.875 C0.74087463 28.85174802 -5.44004636 32.11243429 -11.58374023 35.60595703 C-13.38456559 36.63044184 -15.17988403 37.66409178 -16.97460938 38.69921875 C-29.50494459 45.87768646 -29.50494459 45.87768646 -37.1875 44.875 C-41.15769633 43.47422508 -43.73821218 41.34732822 -46.625 38.3125 C-48.8468017 33.42453626 -48.93768129 29.15785558 -48.1875 23.875 C-44.28011667 14.87102971 -32.47424351 10.19094636 -24.3125 5.5625 C-23.37664063 5.02560547 -22.44078125 4.48871094 -21.4765625 3.93554688 C-14.2597256 -0.17576897 -8.25606432 -2.91390506 0 0 Z " fill="#000000" transform="translate(81.1875,347.125)"/>
<path d="M0 0 C4.33258539 2.25032991 7.00854146 4.79769745 9.0625 9.31640625 C9.81053105 14.4909303 9.71749804 18.80706295 7.625 23.62890625 C1.44612251 30.1091924 -7.08577542 34.24715495 -14.8125 38.62890625 C-16.21628906 39.43424805 -16.21628906 39.43424805 -17.6484375 40.25585938 C-23.87575444 43.80346162 -28.56712225 46.073061 -35.9375 45.31640625 C-40.79998455 43.60023523 -44.45088806 40.88345049 -46.9375 36.31640625 C-48.30507601 31.71027601 -48.1830478 28.18304556 -46.875 23.56640625 C-42.50414122 16.23464314 -34.76949312 12.69567967 -27.54125977 8.58544922 C-25.74043441 7.56096441 -23.94511597 6.52731447 -22.15039062 5.4921875 C-7.7751006 -2.74323106 -7.7751006 -2.74323106 0 0 Z " fill="#000000" transform="translate(469.9375,121.68359375)"/>
<path d="M0 0 C3.66841469 2.89706099 5.73124094 5.77538948 6.50390625 10.359375 C6.79117036 18.4865555 4.29276258 23.16325326 0.09765625 29.94921875 C-0.78778626 31.52629594 -1.66613086 33.10736987 -2.5390625 34.69140625 C-3.4930974 36.40256247 -4.44752701 38.11349867 -5.40234375 39.82421875 C-5.85262939 40.64535156 -6.30291504 41.46648437 -6.7668457 42.3125 C-9.92455337 47.85940887 -13.05282217 52.02445796 -18.90234375 54.94921875 C-24.58565983 55.54028362 -29.05011378 55.22165291 -33.90234375 51.94921875 C-38.35691746 47.01306951 -39.44961896 43.76121563 -39.38427734 37.19384766 C-38.44158275 30.84713484 -34.93708011 25.57083555 -31.71484375 20.13671875 C-31.03248069 18.93799914 -30.35212803 17.73813281 -29.67382812 16.53710938 C-23.38163051 5.51347392 -14.5431855 -8.03309425 0 0 Z " fill="#000000" transform="translate(384.90234375,35.05078125)"/>
<path d="M0 0 C0.82242188 0.04382812 1.64484375 0.08765625 2.4921875 0.1328125 C7.41191305 1.51967875 10.45017715 4.89275871 13.2590332 8.98120117 C13.89156006 10.11533447 14.52408691 11.24946777 15.17578125 12.41796875 C15.52005661 13.02763992 15.86433197 13.6373111 16.21903992 14.26545715 C17.3032603 16.19167569 18.37048458 18.12670851 19.4375 20.0625 C20.17142977 21.37235965 20.9064467 22.68161077 21.64257812 23.99023438 C26.2313819 32.16815302 29.11103302 37.31183045 28.125 46.875 C26.1226035 50.879793 23.94501123 53.5337028 20.125 55.875 C16.05452653 57.23182449 12.38108283 57.39972254 8.125 56.875 C1.78719913 53.64630899 -1.6320461 48.57682832 -5.0390625 42.49609375 C-5.60367188 41.49255859 -6.16828125 40.48902344 -6.75 39.45507812 C-7.3275 38.41802734 -7.905 37.38097656 -8.5 36.3125 C-9.37785156 34.75112305 -9.37785156 34.75112305 -10.2734375 33.15820312 C-18.00375509 19.3730611 -18.00375509 19.3730611 -16.875 9.875 C-14.88412717 5.89325434 -12.71425564 3.15455803 -8.875 0.875 C-5.81473417 -0.10349702 -3.19753797 -0.22910708 0 0 Z " fill="#000000" transform="translate(137.875,33.125)"/>
<path d="M0 0 C3.5677811 2.35149209 5.84221079 4.99692157 7.75 8.8125 C7.88605037 11.87729257 7.96281911 14.91815679 7.98828125 17.984375 C7.996353 18.89954895 8.00442474 19.8147229 8.01274109 20.75762939 C8.02658629 22.6977753 8.03730649 24.63794561 8.04516602 26.578125 C8.0623515 29.53693248 8.10623007 32.49461467 8.15039062 35.453125 C8.16052001 37.33853345 8.16903535 39.22395141 8.17578125 41.109375 C8.19328934 41.99083191 8.21079742 42.87228882 8.22883606 43.78045654 C8.20947466 49.29962117 7.42554442 52.42967686 3.75 56.8125 C-0.28488765 60.35831036 -3.81661409 61.11610179 -9.19140625 61.02734375 C-13.75976317 60.55057026 -16.55117726 58.58687114 -19.5625 55.25 C-22.67008638 50.76126411 -22.44408459 46.96290299 -22.48828125 41.640625 C-22.496353 40.72545105 -22.50442474 39.8102771 -22.51274109 38.86737061 C-22.52658629 36.9272247 -22.53730649 34.98705439 -22.54516602 33.046875 C-22.5623515 30.08806752 -22.60623007 27.13038533 -22.65039062 24.171875 C-22.66052001 22.28646655 -22.66903535 20.40104859 -22.67578125 18.515625 C-22.69328934 17.63416809 -22.71079742 16.75271118 -22.72883606 15.84454346 C-22.70947466 10.32537883 -21.92554442 7.19532314 -18.25 2.8125 C-12.86412785 -1.92053917 -6.58073981 -2.40450109 0 0 Z " fill="#000000" transform="translate(263.25,1.1875)"/>
</svg>
