<?xml version="1.0" encoding="UTF-8"?>
<svg version="1.1" xmlns="http://www.w3.org/2000/svg" width="512" height="512">
<path d="M0 0 C1.51427582 0.00081573 1.51427582 0.00081573 3.05914307 0.00164795 C19.56873539 0.04241399 35.48532001 0.94970691 51.6875 4.375 C52.72938477 4.59462402 53.77126953 4.81424805 54.84472656 5.04052734 C101.13799311 15.13814785 143.55163721 37.49728758 177.6875 70.375 C178.6765332 71.32318604 178.6765332 71.32318604 179.68554688 72.29052734 C189.17380305 81.43497479 197.9137044 90.73234009 205.6875 101.375 C206.54556152 102.52605017 207.40363451 103.67709177 208.26171875 104.828125 C214.29986829 113.01930614 219.65845521 121.53304105 224.6875 130.375 C225.05198242 131.00680176 225.41646484 131.63860352 225.79199219 132.28955078 C243.97241887 164.05314709 256.6875 203.53076363 256.6875 240.375 C203.2275 240.375 149.7675 240.375 94.6875 240.375 C92.7075 233.775 90.7275 227.175 88.6875 220.375 C83.6525452 209.79429788 78.64378778 200.95395378 70.6875 192.375 C69.95660156 191.57578125 69.22570312 190.7765625 68.47265625 189.953125 C50.84482544 171.48882419 26.8434579 162.44706916 1.6875 161.375 C-23.1553764 160.9409518 -46.85924375 171.27487325 -64.90234375 188.03515625 C-80.39180433 203.07273629 -87.24480621 219.74484111 -93.3125 240.375 C-146.7725 240.375 -200.2325 240.375 -255.3125 240.375 C-254.13947151 221.60654411 -254.13947151 221.60654411 -252.625 213.3125 C-252.45057373 212.34626709 -252.27614746 211.38003418 -252.09643555 210.38452148 C-243.78293791 166.00157667 -224.86635649 124.63558178 -195.3125 90.375 C-194.67828125 89.62992187 -194.0440625 88.88484375 -193.390625 88.1171875 C-181.57948485 74.61220167 -168.82889772 61.94081257 -154.3125 51.375 C-153.16255169 50.51850934 -152.01281411 49.66173567 -150.86328125 48.8046875 C-142.67160544 42.76351336 -134.164115 37.39204944 -125.3125 32.375 C-124.27561035 31.77969482 -124.27561035 31.77969482 -123.21777344 31.17236328 C-100.21340507 18.08116404 -74.93523262 9.46077874 -49.0625 4.125 C-48.3317627 3.97369629 -47.60102539 3.82239258 -46.84814453 3.66650391 C-31.2736315 0.66030019 -15.82491724 -0.03219289 0 0 Z " fill="#000000" transform="translate(255.3125,-0.375)"/>
<path d="M0 0 C53.46 0 106.92 0 162 0 C163.65 5.61 165.3 11.22 167 17 C168.25037165 19.98740047 169.41803627 22.69001693 170.9375 25.5 C171.28176025 26.15887207 171.62602051 26.81774414 171.98071289 27.49658203 C184.33468053 50.78049502 204.31019259 67.17376761 229.4375 75.1875 C255.51443173 82.16984784 281.71373173 78.72219242 305.1171875 65.390625 C310.55961193 62.13311548 315.34594633 58.29953095 320 54 C321.14662109 52.99066406 321.14662109 52.99066406 322.31640625 51.9609375 C337.504361 37.85594996 344.24954166 19.55155834 350 0 C403.46 0 456.92 0 512 0 C510.82697151 18.76845589 510.82697151 18.76845589 509.3125 27.0625 C509.13807373 28.02873291 508.96364746 28.99496582 508.78393555 29.99047852 C500.44968074 74.48423882 481.43848778 115.5495833 452 150 C451.36320312 150.74894531 450.72640625 151.49789062 450.0703125 152.26953125 C438.25297532 165.76520621 425.51448412 178.43558025 411 189 C409.85005169 189.85649066 408.70031411 190.71326433 407.55078125 191.5703125 C399.35910544 197.61148664 390.851615 202.98295056 382 208 C381.30874023 208.39687012 380.61748047 208.79374023 379.90527344 209.20263672 C353.76550096 224.07811447 324.66918595 233.42189032 295 238 C293.87319824 238.17805176 292.74639648 238.35610352 291.58544922 238.53955078 C279.97767797 240.19484529 268.46267215 240.39979544 256.75 240.375 C255.73698822 240.37412384 254.72397644 240.37324768 253.68026733 240.37234497 C193.73693431 240.20177475 135.53037145 219.27540029 90 180 C89.25492187 179.36578125 88.50984375 178.7315625 87.7421875 178.078125 C74.23720167 166.26698485 61.56581257 153.51639772 51 139 C50.14350934 137.85005169 49.28673567 136.70031411 48.4296875 135.55078125 C42.3890586 127.35910474 37.02994929 118.84354922 32 110 C31.63551758 109.36819824 31.27103516 108.73639648 30.89550781 108.08544922 C12.68871177 76.27578218 0 36.94623188 0 0 Z " fill="#000000" transform="translate(0,272)"/>
<path d="M0 0 C1.06992187 0.474375 2.13984375 0.94875 3.2421875 1.4375 C19.75466286 9.51889971 30.60523995 22.82755446 37 40 C41.30117326 53.9146728 41.09524021 71.68480263 35 85 C34.525625 86.06992187 34.05125 87.13984375 33.5625 88.2421875 C25.53996296 104.63439059 12.16715507 115.82260053 -5 122 C-22.41824347 127.05634913 -41.59366026 125.04005104 -57.41772461 116.46020508 C-72.85764719 107.52172136 -82.86748581 93.36904589 -88.11328125 76.3984375 C-91.19627114 63.38867917 -90.58043482 47.19059274 -85 35 C-84.2884375 33.39511719 -84.2884375 33.39511719 -83.5625 31.7578125 C-75.48110029 15.24533714 -62.17244554 4.39476005 -45 -2 C-31.0853272 -6.30117326 -13.31519737 -6.09524021 0 0 Z " fill="#000000" transform="translate(281,196)"/>
</svg>
