<?xml version="1.0" encoding="UTF-8"?>
<svg version="1.1" xmlns="http://www.w3.org/2000/svg" width="512" height="511">
<path d="M0 0 C3.33882348 2.98173512 6.6095792 6.03027763 9.84375 9.125 C11.11959841 10.34458023 12.40786827 11.55113527 13.69775391 12.75585938 C20.29514121 19.08372642 25.77683475 26.21305977 31.27197266 33.49023438 C31.99642578 34.44285156 32.72087891 35.39546875 33.46728516 36.37695312 C38.51016647 43.1502349 43.03448254 50.1886823 47.27197266 57.49023438 C47.62372559 58.08980957 47.97547852 58.68938477 48.33789062 59.30712891 C60.25665651 79.8716872 67.62684016 102.26457191 72.27197266 125.49023438 C72.5366333 126.71299072 72.5366333 126.71299072 72.80664062 127.96044922 C78.14877809 153.14632425 77.70416493 183.37169176 72.27197266 208.49023438 C72.10568359 209.3168457 71.93939453 210.14345703 71.76806641 210.99511719 C61.57540473 261.18453831 33.86497823 307.91159736 -6.72802734 339.49023438 C-8.11248047 340.58271484 -8.11248047 340.58271484 -9.52490234 341.69726562 C-56.20226821 377.71453037 -115.0047721 393.08993563 -173.36938477 385.82592773 C-230.81580598 378.11387164 -283.53847405 348.6630001 -319.27099609 302.80053711 C-329.75946538 289.01082885 -338.38631552 274.16091956 -345.72802734 258.49023438 C-346.49179687 256.90855469 -346.49179687 256.90855469 -347.27099609 255.29492188 C-358.12790239 231.60183414 -364.784458 204.50453747 -364.93115234 178.38085938 C-364.93821198 177.54024963 -364.94527161 176.69963989 -364.95254517 175.83355713 C-365.17674381 141.30537261 -365.17674381 141.30537261 -361.72802734 125.49023438 C-361.43001221 124.04003906 -361.43001221 124.04003906 -361.12597656 122.56054688 C-358.020416 107.63524606 -353.73972771 93.49818723 -347.72802734 79.49023438 C-347.21199951 78.28077148 -347.21199951 78.28077148 -346.68554688 77.046875 C-335.77220731 51.87242084 -319.77805062 30.07575104 -300.72802734 10.49023438 C-299.97650391 9.69875 -299.22498047 8.90726563 -298.45068359 8.09179688 C-234.74050232 -57.83325778 -128.44481221 -70.51635646 0 0 Z " fill="#000000" transform="translate(400.72802734375,88.509765625)"/>
<path d="M0 0 C37.95 0 75.9 0 115 0 C118 8 118 8 119.0703125 10.94921875 C125.35420637 27.26406913 135.91561534 39.30730376 151 48 C151.76828125 48.4640625 152.5365625 48.928125 153.328125 49.40625 C169.26503951 58.29622952 188.38610108 59.13619748 205.71484375 54.39453125 C225.29749718 48.41205967 240.6219491 35.66673073 250.2734375 17.625 C252.54533982 13.08611823 253.99240497 8.3421358 255.30859375 3.44921875 C256 1 256 1 257 0 C258.4674896 -0.09565123 259.93956884 -0.12188309 261.41017151 -0.12025452 C262.36234558 -0.12162918 263.31451965 -0.12300385 264.29554749 -0.12442017 C265.34858566 -0.12082489 266.40162384 -0.11722961 267.48657227 -0.11352539 C269.14002151 -0.11374443 269.14002151 -0.11374443 270.82687378 -0.1139679 C274.49007092 -0.11326821 278.15321794 -0.10547324 281.81640625 -0.09765625 C284.34846468 -0.09579227 286.88052348 -0.09436827 289.4125824 -0.09336853 C295.40848249 -0.08993346 301.40436089 -0.08204269 307.40025228 -0.07201904 C314.22481058 -0.06085677 321.04936972 -0.05534717 327.87393486 -0.05032361 C341.91596664 -0.03986004 355.95798233 -0.0222613 370 0 C369.84555086 1.58358469 369.6899761 3.16705961 369.53393555 4.75048828 C369.40416573 6.07320236 369.40416573 6.07320236 369.27177429 7.42263794 C364.36327635 53.97220769 339.18296883 98.77538046 302.9375 128.24023438 C290.45309995 138.11907326 277.4433745 146.30989117 263 153 C261.87207031 153.53367187 260.74414062 154.06734375 259.58203125 154.6171875 C244.81278086 161.30057631 229.02621302 165.66600982 213 168 C211.96141846 168.1544458 211.96141846 168.1544458 210.90185547 168.31201172 C192.57078298 170.94022664 174.30331718 170.69480949 156 168 C154.06833984 167.72542969 154.06833984 167.72542969 152.09765625 167.4453125 C117.86209798 161.81469276 84.54434314 145.40256941 59.515625 121.375 C57.0437418 118.97469422 57.0437418 118.97469422 54.37109375 116.90625 C50.75996653 114.00307029 47.982446 110.52893708 45 107 C44.24589844 106.14535156 43.49179688 105.29070312 42.71484375 104.41015625 C35.57599718 96.16258232 29.61805502 87.34240724 24 78 C23.59894043 77.33403809 23.19788086 76.66807617 22.78466797 75.98193359 C13.36716722 60.03580874 7.18732915 42.30443653 3 24.3125 C2.80438477 23.47759033 2.60876953 22.64268066 2.40722656 21.7824707 C0.82823256 14.41986793 0.5505136 7.70719034 0 0 Z " fill="#FEFEFE" transform="translate(70,270)"/>
<path d="M0 0 C43.16933689 -1.26549907 86.29500658 10.22294296 120.64160156 37.078125 C121.59035156 37.81675781 122.53910156 38.55539063 123.51660156 39.31640625 C157.74050621 66.68580727 180.98590216 103.5447704 190.95410156 146.265625 C191.11362305 146.92884766 191.27314453 147.59207031 191.4375 148.27539062 C193.03270217 155.60698207 193.12743482 162.3656238 193.64160156 170.078125 C155.69160156 170.078125 117.74160156 170.078125 78.64160156 170.078125 C75.64160156 162.078125 75.64160156 162.078125 74.57128906 159.12890625 C67.39858388 140.50643834 54.17296505 127.01546191 36.27050781 118.46875 C18.19098121 111.08935139 -1.23244326 111.12667137 -19.54589844 117.828125 C-39.33554763 126.41119707 -52.00470287 141.71524047 -60.35839844 161.078125 C-61.34839844 163.718125 -62.33839844 166.358125 -63.35839844 169.078125 C-100.31839844 169.078125 -137.27839844 169.078125 -175.35839844 169.078125 C-175.35839844 161.14313395 -175.02123663 154.69431178 -173.29589844 147.140625 C-173.07184326 146.14627441 -172.84778809 145.15192383 -172.61694336 144.12744141 C-164.69478813 110.33664018 -147.95522048 81.33502497 -124.35839844 56.078125 C-123.59914062 55.26472656 -122.83988281 54.45132813 -122.05761719 53.61328125 C-107.06239504 38.07813294 -88.88485607 26.10186668 -69.35839844 17.078125 C-68.21886719 16.54445313 -67.07933594 16.01078125 -65.90527344 15.4609375 C-45.16239137 6.1507602 -22.73656065 0.75317799 0 0 Z " fill="#FE1B1B" transform="translate(248.3583984375,70.921875)"/>
<path d="M0 0 C38.21128057 3.56169589 76.88717907 31.41526149 101 60 C120.69740413 83.76027587 134.29768857 111.12402245 141.3125 141.1875 C141.55178223 142.18233398 141.55178223 142.18233398 141.79589844 143.19726562 C143.39110061 150.52885707 143.48583325 157.2874988 144 165 C106.05 165 68.1 165 29 165 C29 164.67 29 164.34 29 164 C51.11 164 73.22 164 96 164 C89.17615105 113.95844105 75.31855032 69.22766115 40 32 C39.53255371 31.50000488 39.06510742 31.00000977 38.58349609 30.48486328 C27.7882105 18.99806473 15.90907724 9.84847732 2.09765625 2.2421875 C1.40542969 1.83226563 0.71320313 1.42234375 0 1 C0 0.67 0 0.34 0 0 Z " fill="#DC1717" transform="translate(298,76)"/>
<path d="M0 0 C37.29 0 74.58 0 113 0 C108.09149086 49.08509145 85.85145919 94.90904877 47.66015625 126.83984375 C34.74508307 137.33883181 21.11004079 146.03056568 6 153 C4.82566406 153.54527344 3.65132813 154.09054687 2.44140625 154.65234375 C-3.8231074 157.44684303 -10.162744 159.8369942 -16.6875 161.9375 C-17.37134766 162.16139404 -18.05519531 162.38528809 -18.75976562 162.6159668 C-23.63545674 164.12151442 -23.63545674 164.12151442 -27 163 C-26.15179688 162.47792969 -25.30359375 161.95585937 -24.4296875 161.41796875 C17.77515091 135.0992212 46.24040277 93.94068325 59 46 C59.31582031 44.87335938 59.63164062 43.74671875 59.95703125 42.5859375 C63.66516946 28.93404188 65.24871179 15.01030569 67 1 C44.89 1 22.78 1 0 1 C0 0.67 0 0.34 0 0 Z " fill="#DCDCDC" transform="translate(327,270)"/>
<path d="M0 0 C8.81494522 6.74336166 15.63478737 15.55254109 17.625 26.75 C18.53190911 40.91859642 16.90633487 52.40614627 7.625 63.75 C0.08565527 71.80929954 -9.93097526 77.15942089 -21 77.93359375 C-34.41254838 78.25027892 -45.48852434 74.25373944 -55.3359375 64.98046875 C-64.53997751 54.91244798 -67.26049202 43.23174553 -66.7890625 29.94921875 C-66.01033726 19.1229788 -59.92629602 9.79609608 -52.125 2.5625 C-36.88703865 -9.80991552 -16.39010189 -10.83581623 0 0 Z " fill="#FDFDFD" transform="translate(280.375,220.25)"/>
</svg>
